<svg xmlns="http://www.w3.org/2000/svg" width="100" height="101"><rect id="backgroundrect" width="100%" height="100%" x="0" y="0" fill="none" stroke="none"/><g><title>background</title><rect id="canvas_background" width="102" height="103" x="-1" y="-1" fill="none"/></g><g class="currentLayer"><title>Layer 1</title><g id="svg_1"><rect id="svg_2" width="185" height="99" x="-192"/><rect id="svg_3" width="100" height="30" y="-36"/><text id="svg_4" fill="#000" font-family="'Helvetica'" font-size="2.4" transform="matrix(1,0,0,1,66,-19.5)">http://thenounproject.com</text><text id="svg_5" transform="matrix(1,0,0,1,7.166,-24.5)"><tspan id="svg_6" x="0" y="0" fill="#000" font-family="'Helvetica-Bold'" font-size="6.158">The Noun Project</tspan> <tspan id="svg_7" x="1.12" y="4.8" fill="#000" font-family="'Helvetica-Bold'" font-size="4">Icon Template</tspan></text><text id="svg_8" fill="#000" font-family="'Helvetica-Bold'" font-size="6.158" transform="matrix(1,0,0,1,-178.5,10.5)">Reminders</text><line id="svg_9" x1="8" x2="18" y1="-14.5" y2="-14.5" fill="#000" stroke="#FFF" stroke-miterlimit="10"/><line id="svg_10" x1="-179" x2="-162" y1="16.5" y2="16.5" fill="#000" stroke="#FFF" stroke-miterlimit="10"/><g id="svg_11"><g id="svg_12"><g id="svg_13"><rect id="svg_14" width="8.721" height="8.642" x="-170.802" y="31.318" fill="#000"/><path id="svg_15" fill="#000" d="m-164.455,42.312l4.747,0l0,-4.703l-4.747,0l0,4.703zm5.189,0.437l-5.63,0l0,-5.579l5.63,0l0,5.579l0,0zm-6.955,1.313l8.279,0l0,-8.203l-8.279,0l0,8.203l0,0zm8.721,0.438l-9.163,0l0,-9.079l9.163,0l0,9.079l0,0z"/><polygon id="svg_16" fill="#000" points="-166.149 44.133 -166.292 43.991 -158.013 35.787 -157.871 35.929"/></g></g></g><rect id="svg_17" width="35" height="32.5" x="-179" y="58" fill="none"/><text id="svg_18" transform="matrix(1,0,0,1,-179,60.1572)"><tspan id="svg_19" x="0" y="0" fill="#000" font-family="'Helvetica-Bold'" font-size="3">Strokes</tspan> <tspan id="svg_20" x="0" y="5" fill="#000" font-family="'Helvetica'" font-size="2.4">Try to keep strokes at 4px</tspan> <tspan id="svg_21" x="0" y="10" fill="#000" font-family="'Helvetica'" font-size="2.4">Minimum stroke weight is 2px</tspan> <tspan id="svg_22" x="0" y="14.5" fill="#000" font-family="'Helvetica'" font-size="2.4">For thicker strokes use even</tspan> <tspan id="svg_23" x="0" y="17.5" fill="#000" font-family="'Helvetica'" font-size="2.4">numbers: 6px, 8px etc.</tspan> <tspan id="svg_24" x="0" y="22" fill="#000" font-family="'Helvetica-Bold'" font-size="2.4">Remember to expand strokes</tspan> <tspan id="svg_25" x="0" y="25" fill="#000" font-family="'Helvetica-Bold'" font-size="2.4">before saving as an SVG</tspan></text><rect id="svg_26" width="35" height="32.5" x="-136.5" y="58" fill="none"/><text id="svg_27" transform="matrix(1,0,0,1,-136.5,60.1572)"><tspan id="svg_28" x="0" y="0" fill="#000" font-family="'Helvetica-Bold'" font-size="3">Size</tspan> <tspan id="svg_29" x="0" y="5" fill="#000" font-family="'Helvetica'" font-size="2.4">Cannot be wider or taller than</tspan> <tspan id="svg_30" x="0" y="8.5" fill="#000" font-family="'Helvetica'" font-size="2.4">100px (artboard size)</tspan> <tspan id="svg_31" x="0" y="13.5" fill="#000" font-family="'Helvetica'" font-size="2.4">Scale your icon to fill as much of</tspan> <tspan id="svg_32" x="0" y="16.5" fill="#000" font-family="'Helvetica'" font-size="2.4">the artboard as possible</tspan></text><rect id="svg_33" width="35" height="32.5" x="-94" y="58" fill="none"/><text id="svg_34" transform="matrix(1,0,0,1,-94,60.1572)"><tspan id="svg_35" x="0" y="0" fill="#000" font-family="'Helvetica-Bold'" font-size="3">Ungroup</tspan> <tspan id="svg_36" x="0" y="5" fill="#000" font-family="'Helvetica'" font-size="2.4">If your design has more than one</tspan> <tspan id="svg_37" x="0" y="8" fill="#000" font-family="'Helvetica'" font-size="2.4">shape, make sure to ungroup</tspan></text><rect id="svg_38" width="35" height="32.5" x="-50" y="58" fill="none"/><text id="svg_39" transform="matrix(1,0,0,1,-50,60.1572)"><tspan id="svg_40" x="0" y="0" fill="#000" font-family="'Helvetica-Bold'" font-size="3">Save as</tspan> <tspan id="svg_41" x="0" y="5" fill="#000" font-family="'Helvetica'" font-size="2.4">Save as .SVG and make sure</tspan> <tspan id="svg_42" x="0" y="8" fill="#000" font-family="'Helvetica'" font-size="2.4">“Use Artboards” is checked</tspan></text><text id="svg_43" fill="#000" font-family="'Helvetica'" font-size="2.573" transform="matrix(1.0074,0,0,1,-125.542,30.5933)">100px</text><text id="svg_44" fill="#000" font-family="'Helvetica-Bold'" font-size="5.146" transform="matrix(1.0074,0,0,1,-41,39)">.SVG</text><rect id="svg_45" width="10.261" height="10.185" x="-126.514" y="34.815" fill="#000"/><rect id="svg_46" width=".522" height="2.337" x="-126.477" y="31.766" fill="#000"/><rect id="svg_47" width=".523" height="2.337" x="-116.812" y="31.766" fill="#000"/><rect id="svg_48" width="11.233" height=".572" x="-127" y="32.337" fill="#000"/><g id="svg_49"><rect id="svg_50" width="10.305" height="10.156" x="-83.805" y="33.844" fill="#000"/><rect id="svg_51" width="3.308" height="3.261" x="-76.809" y="28.707" fill="#000"/></g><rect id="svg_52" width="30" height="30" x="-178.5" y="22.5" fill="#000" stroke="#FFF" stroke-miterlimit="10"/><rect id="svg_53" width="30" height="30" x="-136.5" y="22.5" fill="#000" stroke="#FFF" stroke-miterlimit="10"/><rect id="svg_54" width="30" height="30" x="-93.5" y="22.5" fill="#000" stroke="#FFF" stroke-miterlimit="10"/><rect id="svg_55" width="30" height="30" x="-49.5" y="22.5" fill="#000" stroke="#FFF" stroke-miterlimit="10"/></g><g id="svg_56" fill="#fff" fill-opacity="1"><g id="svg_57" fill="#fff" fill-opacity="1"><g id="svg_58" fill="#fff" fill-opacity="1"><g id="svg_59" fill="#fff" fill-opacity="1"><path id="svg_60" fill="#fff" fill-opacity="1" fill-rule="evenodd" d="m75.71716723227969,35.99254974510752 l-51.092945516822724,0 c-5.241494097944168,0 -9.490038856657502,4.4969636863043725 -9.490038856657502,9.8466870831113 l0,27.198240715551748 l69.73162879748338,0 l0,-27.198240715551748 c0,-5.349723396806929 -3.9064239549256836,-9.8466870831113 -9.148644424003159,-9.8466870831113 zm-41.251343031644566,22.09984173086908 c-3.4495365120755066,0 -6.245339004174606,-2.853912182763669 -6.245339004174606,-6.373906694769966 c0,-3.5199945120062965 2.7958024920990994,-6.374633065903272 6.245339004174606,-6.374633065903272 s6.244612633041298,2.854638553896976 6.244612633041298,6.374633065903272 c0,3.5199945120062965 -2.7950761209657924,6.373906694769966 -6.244612633041298,6.373906694769966 zm31.939265102647312,0 c-3.448810140942199,0 -6.245339004174606,-2.853912182763669 -6.245339004174606,-6.373906694769966 c0,-3.5199945120062965 2.7965288632324063,-6.374633065903272 6.245339004174606,-6.374633065903272 c3.4480837698088918,0 6.244612633041298,2.854638553896976 6.244612633041298,6.374633065903272 c0,3.5199945120062965 -2.7965288632324063,6.373906694769966 -6.244612633041298,6.373906694769966 z" clip-rule="evenodd"/></g></g></g><g id="svg_61" fill="#fff" fill-opacity="1"><g id="svg_62" fill="#fff" fill-opacity="1"><g id="svg_63" fill="#fff" fill-opacity="1"><path id="svg_64" fill="#fff" fill-opacity="1" fill-rule="evenodd" d="m28.331619979856505,75.53837335574697 l43.143539833909614,0 c1.2377364111553302,0 2.239402203985847,1.02345692682973 2.239402203985847,2.285889956517502 c0,1.2631594008210791 -1.0016657928305168,2.2866163276508096 -2.239402203985847,2.2866163276508096 l-43.143539833909614,0 c-1.2370100400220227,0 -2.240128575119154,-1.02345692682973 -2.240128575119154,-2.2866163276508096 c0,-1.261706658554465 1.0031185350971308,-2.285889956517502 2.240128575119154,-2.285889956517502 z" clip-rule="evenodd"/></g></g></g><g id="svg_65" fill="#fff" fill-opacity="1"><g id="svg_66" fill="#fff" fill-opacity="1"><g id="svg_67" fill="#fff" fill-opacity="1"><path id="svg_68" fill="#fff" fill-opacity="1" fill-rule="evenodd" d="m35.6272916427932,82.2253460089723 l28.938625950955604,0 c1.2377364111553302,0 2.240128575119154,1.0241832979630372 2.240128575119154,2.2873426987841166 s-1.0023921639638238,2.285889956517502 -2.240128575119154,2.285889956517502 l-28.938625950955604,0 c-1.2370100400220227,0 -2.240128575119154,-1.0227305556964228 -2.240128575119154,-2.285889956517502 s1.0031185350971308,-2.2873426987841166 2.240128575119154,-2.2873426987841166 z" clip-rule="evenodd"/></g></g></g><g id="svg_69" fill="#fff" fill-opacity="1"><g id="svg_70" fill="#fff" fill-opacity="1"><g id="svg_71" fill="#fff" fill-opacity="1"><path id="svg_72" fill="#fff" fill-opacity="1" fill-rule="evenodd" d="m55.23858587095209,18.857454710392588 c0,-2.5713538119071995 -1.9764558537286696,-4.65603896449863 -4.496237315171065,-4.65603896449863 c-2.5176023480424727,0 -4.373480593642161,2.0846851525914305 -4.373480593642161,4.65603896449863 c0,1.5987428644089676 0.7256447621738124,3.008629234158085 2.1783870287880487,3.8468615219945006 l0,7.922529950980742 c0,1.3575876481510047 0.8505805971026358,2.4573135439779823 2.1791133999213557,2.4573135439779823 c1.3299855450853344,0 2.1791133999213557,-1.0997258958269776 2.1791133999213557,-2.4573135439779823 l0,-7.790330404718846 c1.452742266614237,-0.8164411538372015 2.3331040801824647,-2.290248183317345 2.3331040801824647,-3.9790610682563954 z" clip-rule="evenodd"/></g></g></g></g></g></svg>